G04*
G04 #@! TF.GenerationSoftware,Altium Limited,Altium Designer,19.0.15 (446)*
G04*
G04 Layer_Color=32768*
%FSLAX25Y25*%
%MOIN*%
G70*
G01*
G75*
%ADD64C,0.00394*%
%ADD66C,0.00197*%
D64*
X376587Y452531D02*
Y456468D01*
X374618Y454500D02*
X378555D01*
X247311Y452622D02*
Y456559D01*
X245342Y454591D02*
X249279D01*
X336531Y411000D02*
X340469D01*
X338500Y409031D02*
Y412968D01*
X385032Y372532D02*
X388968D01*
X387000Y370563D02*
Y374500D01*
X281031Y405500D02*
X284968D01*
X283000Y403532D02*
Y407469D01*
X264032Y393689D02*
X267969D01*
X266000Y391721D02*
Y395657D01*
X320595Y406032D02*
Y409969D01*
X318626Y408000D02*
X322563D01*
X370941Y347958D02*
Y351895D01*
X368972Y349926D02*
X372909D01*
X368032Y381000D02*
X371969D01*
X370000Y379031D02*
Y382968D01*
X327201Y365240D02*
Y369177D01*
X325232Y367209D02*
X329169D01*
X299024Y397709D02*
X302764D01*
X300894Y395839D02*
Y399579D01*
X284075Y376354D02*
Y378520D01*
X282992Y377437D02*
X285157D01*
X310130Y383000D02*
X313870D01*
X312000Y381130D02*
Y384870D01*
X311894Y423417D02*
Y425583D01*
X310811Y424500D02*
X312976D01*
X330425Y174500D02*
X334362D01*
X332394Y172531D02*
Y176469D01*
X284697Y174500D02*
X288634D01*
X286665Y172531D02*
Y176469D01*
X356394Y399532D02*
Y403469D01*
X354425Y401500D02*
X358362D01*
X349425Y298500D02*
X353362D01*
X351394Y296532D02*
Y300468D01*
X369425Y298500D02*
X373362D01*
X371394Y296532D02*
Y300468D01*
X330425Y329500D02*
X334362D01*
X332394Y327532D02*
Y331469D01*
X300894Y362917D02*
Y365083D01*
X299811Y364000D02*
X301976D01*
X241032Y394000D02*
X244969D01*
X243000Y392032D02*
Y395969D01*
X251394Y337531D02*
Y341469D01*
X249425Y339500D02*
X253362D01*
X251394Y354532D02*
Y358469D01*
X249425Y356500D02*
X253362D01*
X308425Y329500D02*
X312362D01*
X310394Y327532D02*
Y331469D01*
X252532Y233209D02*
X256469D01*
X254500Y231240D02*
Y235177D01*
D66*
X315563Y429303D02*
Y479697D01*
X437610Y429303D02*
Y479697D01*
X315563D02*
X437610D01*
X315563Y429303D02*
X437610D01*
X186287Y429394D02*
Y479787D01*
X308335Y429394D02*
Y479787D01*
X186287D02*
X308335D01*
X186287Y429394D02*
X308335D01*
X329642Y393874D02*
Y428126D01*
X347358Y393874D02*
Y428126D01*
X329642Y393874D02*
X347358D01*
X329642Y428126D02*
X347358D01*
X378142Y355405D02*
Y389657D01*
X395858Y355405D02*
Y389657D01*
X378142Y355405D02*
X395858D01*
X378142Y389657D02*
X395858D01*
X290677Y390146D02*
Y420854D01*
X275323Y390146D02*
Y420854D01*
X290677D01*
X275323Y390146D02*
X290677D01*
X273677Y378335D02*
Y409043D01*
X258323Y378335D02*
Y409043D01*
X273677D01*
X258323Y378335D02*
X273677D01*
X315083Y419417D02*
X326107D01*
X315083Y396583D02*
X326107D01*
Y419417D01*
X315083Y396583D02*
Y419417D01*
X365429Y361344D02*
X376453D01*
X365429Y338509D02*
X376453D01*
Y361344D01*
X365429Y338509D02*
Y361344D01*
X362323Y375291D02*
Y386709D01*
X377677Y375291D02*
Y386709D01*
X362323D02*
X377677D01*
X362323Y375291D02*
X377677D01*
X312634Y356382D02*
X341768D01*
X312634Y378035D02*
X341768D01*
Y356382D02*
Y378035D01*
X312634Y356382D02*
Y378035D01*
X294398Y393575D02*
Y401842D01*
X307390Y393575D02*
Y401842D01*
X294398D02*
X307390D01*
X294398Y393575D02*
X307390D01*
X282303Y373894D02*
X285846D01*
X282303Y380980D02*
X285846D01*
X282303Y373894D02*
Y380980D01*
X285846Y373894D02*
Y380980D01*
X322524Y202500D02*
X326264D01*
X324394Y200630D02*
Y204370D01*
X322228Y197973D02*
Y207028D01*
X326559Y197973D02*
Y207028D01*
X322228D02*
X326559D01*
X322228Y197973D02*
X326559D01*
X305504Y378866D02*
Y387134D01*
X318496Y378866D02*
Y387134D01*
X305504D02*
X318496D01*
X305504Y378866D02*
X318496D01*
X322228Y263028D02*
X326559D01*
X322228Y253972D02*
X326559D01*
X322228D02*
Y263028D01*
X326559Y253972D02*
Y263028D01*
X324394Y256630D02*
Y260370D01*
X322524Y258500D02*
X326264D01*
X332228Y263028D02*
X336559D01*
X332228Y253972D02*
X336559D01*
X332228D02*
Y263028D01*
X336559Y253972D02*
Y263028D01*
X334394Y256630D02*
Y260370D01*
X332524Y258500D02*
X336264D01*
X302228Y263028D02*
X306559D01*
X302228Y253972D02*
X306559D01*
X302228D02*
Y263028D01*
X306559Y253972D02*
Y263028D01*
X304394Y256630D02*
Y260370D01*
X302524Y258500D02*
X306264D01*
X312228Y263028D02*
X316559D01*
X312228Y253972D02*
X316559D01*
X312228D02*
Y263028D01*
X316559Y253972D02*
Y263028D01*
X314394Y256630D02*
Y260370D01*
X312524Y258500D02*
X316264D01*
X302228Y197973D02*
X306559D01*
X302228Y207028D02*
X306559D01*
Y197973D02*
Y207028D01*
X302228Y197973D02*
Y207028D01*
X304394Y200630D02*
Y204370D01*
X302524Y202500D02*
X306264D01*
X342228Y197973D02*
X346559D01*
X342228Y207028D02*
X346559D01*
Y197973D02*
Y207028D01*
X342228Y197973D02*
Y207028D01*
X344394Y200630D02*
Y204370D01*
X342524Y202500D02*
X346264D01*
X332228Y197973D02*
X336559D01*
X332228Y207028D02*
X336559D01*
Y197973D02*
Y207028D01*
X332228Y197973D02*
Y207028D01*
X334394Y200630D02*
Y204370D01*
X332524Y202500D02*
X336264D01*
X312228Y197973D02*
X316559D01*
X312228Y207028D02*
X316559D01*
Y197973D02*
Y207028D01*
X312228Y197973D02*
Y207028D01*
X314394Y200630D02*
Y204370D01*
X312524Y202500D02*
X316264D01*
X342228Y263028D02*
X346559D01*
X342228Y253972D02*
X346559D01*
X342228D02*
Y263028D01*
X346559Y253972D02*
Y263028D01*
X344394Y256630D02*
Y260370D01*
X342524Y258500D02*
X346264D01*
X307760Y422335D02*
X316028D01*
X307760Y426665D02*
X316028D01*
Y422335D02*
Y426665D01*
X307760Y422335D02*
Y426665D01*
X322807Y169500D02*
Y179500D01*
X341980Y169500D02*
Y179500D01*
X322807D02*
X341980D01*
X322807Y169500D02*
X341980D01*
X277079D02*
Y179500D01*
X296252Y169500D02*
Y179500D01*
X277079D02*
X296252D01*
X277079Y169500D02*
X296252D01*
X352457Y408193D02*
X360331D01*
X352457Y394807D02*
X360331D01*
Y408193D01*
X352457Y394807D02*
Y408193D01*
X343126Y285156D02*
Y311844D01*
X359661Y285156D02*
Y311844D01*
X343126Y285156D02*
X359661D01*
X343126Y311844D02*
X359661D01*
X363126Y285156D02*
Y311844D01*
X379661Y285156D02*
Y311844D01*
X363126Y285156D02*
X379661D01*
X363126Y311844D02*
X379661D01*
X338890Y318280D02*
Y340721D01*
X325898Y318280D02*
Y340721D01*
X338890D01*
X325898Y318280D02*
X338890D01*
X299122Y360457D02*
X302665D01*
X299122Y367543D02*
X302665D01*
X299122Y360457D02*
Y367543D01*
X302665Y360457D02*
Y367543D01*
X250284Y371185D02*
Y416776D01*
X235717Y371185D02*
X250284D01*
X235717Y416776D02*
X250284D01*
X235717Y371185D02*
Y416776D01*
X241158Y336154D02*
X261630D01*
X241158D02*
Y342846D01*
X261630Y336154D02*
Y342846D01*
X241158D02*
X261630D01*
X241158Y353153D02*
X261630D01*
X241158D02*
Y359846D01*
X261630Y353153D02*
Y359846D01*
X241158D02*
X261630D01*
X285528Y337335D02*
Y341665D01*
X276472Y337335D02*
Y341665D01*
Y337335D02*
X285528D01*
X276472Y341665D02*
X285528D01*
X279130Y339500D02*
X282870D01*
X281000Y337630D02*
Y341370D01*
X316890Y318280D02*
Y340721D01*
X303898Y318280D02*
Y340721D01*
X316890D01*
X303898Y318280D02*
X316890D01*
X285421Y357543D02*
Y361874D01*
X276366Y357543D02*
Y361874D01*
Y357543D02*
X285421D01*
X276366Y361874D02*
X285421D01*
X279024Y359709D02*
X282764D01*
X280894Y357839D02*
Y361579D01*
X261784Y210394D02*
Y255984D01*
X247217Y210394D02*
X261784D01*
X247217Y255984D02*
X261784D01*
X247217Y210394D02*
Y255984D01*
M02*
