G04*
G04 #@! TF.GenerationSoftware,Altium Limited,Altium Designer,19.0.15 (446)*
G04*
G04 Layer_Color=8421504*
%FSLAX25Y25*%
%MOIN*%
G70*
G01*
G75*
%ADD16R,0.13583X0.05709*%
%ADD17R,0.13189X0.04921*%
%ADD18R,0.10236X0.04134*%
%ADD19R,0.03937X0.10236*%
G04:AMPARAMS|DCode=20|XSize=23.62mil|YSize=57.09mil|CornerRadius=2.01mil|HoleSize=0mil|Usage=FLASHONLY|Rotation=90.000|XOffset=0mil|YOffset=0mil|HoleType=Round|Shape=RoundedRectangle|*
%AMROUNDEDRECTD20*
21,1,0.02362,0.05307,0,0,90.0*
21,1,0.01961,0.05709,0,0,90.0*
1,1,0.00402,0.02653,0.00980*
1,1,0.00402,0.02653,-0.00980*
1,1,0.00402,-0.02653,-0.00980*
1,1,0.00402,-0.02653,0.00980*
%
%ADD20ROUNDEDRECTD20*%
%ADD21R,0.03543X0.04134*%
%ADD22R,0.02165X0.02165*%
%ADD23R,0.02559X0.02559*%
%ADD24R,0.05709X0.04724*%
%ADD25R,0.10799X0.08500*%
%ADD26O,0.01772X0.05512*%
%ADD27R,0.06299X0.08583*%
%ADD28R,0.06299X0.08661*%
%ADD29R,0.05906X0.05906*%
%ADD30R,0.02756X0.03543*%
D16*
X338500Y398795D02*
D03*
Y423205D02*
D03*
X387000Y360327D02*
D03*
Y384736D02*
D03*
D17*
X283000Y417311D02*
D03*
Y393689D02*
D03*
X266000Y405500D02*
D03*
Y381878D02*
D03*
D18*
X320595Y416858D02*
D03*
Y399142D02*
D03*
X370941Y358785D02*
D03*
Y341068D02*
D03*
D19*
X364685Y381000D02*
D03*
X375315D02*
D03*
D20*
X337929Y359709D02*
D03*
Y364709D02*
D03*
Y369709D02*
D03*
Y374709D02*
D03*
X316472Y359709D02*
D03*
Y364709D02*
D03*
Y369709D02*
D03*
Y374709D02*
D03*
D21*
X298236Y397709D02*
D03*
X303551D02*
D03*
X309343Y383000D02*
D03*
X314657D02*
D03*
D22*
X284075Y375665D02*
D03*
Y379209D02*
D03*
X300894Y362228D02*
D03*
Y365772D02*
D03*
D23*
X313862Y424500D02*
D03*
X309925D02*
D03*
D24*
X356394Y404846D02*
D03*
Y398153D02*
D03*
D25*
X351394Y289799D02*
D03*
Y307201D02*
D03*
X371394Y289799D02*
D03*
Y307201D02*
D03*
D26*
X336232Y337571D02*
D03*
X333673D02*
D03*
X331114D02*
D03*
X328555D02*
D03*
X336232Y321429D02*
D03*
X333673D02*
D03*
X331114D02*
D03*
X328555D02*
D03*
X314232Y337571D02*
D03*
X311673D02*
D03*
X309114D02*
D03*
X306555D02*
D03*
X314232Y321429D02*
D03*
X311673D02*
D03*
X309114D02*
D03*
X306555D02*
D03*
D27*
X243000Y412090D02*
D03*
X254500Y251299D02*
D03*
D28*
X243000Y375909D02*
D03*
X254500Y215118D02*
D03*
D29*
X258283Y339500D02*
D03*
X244504D02*
D03*
X258283Y356500D02*
D03*
X244504D02*
D03*
D30*
X283756Y339500D02*
D03*
X278244D02*
D03*
X283650Y359709D02*
D03*
X278138D02*
D03*
M02*
