G04*
G04 #@! TF.GenerationSoftware,Altium Limited,Altium Designer,19.0.15 (446)*
G04*
G04 Layer_Color=8388736*
%FSLAX25Y25*%
%MOIN*%
G70*
G01*
G75*
%ADD31R,0.14383X0.06509*%
%ADD32R,0.13989X0.05721*%
%ADD33R,0.11036X0.04934*%
%ADD34R,0.04737X0.11036*%
G04:AMPARAMS|DCode=35|XSize=31.62mil|YSize=65.09mil|CornerRadius=6.01mil|HoleSize=0mil|Usage=FLASHONLY|Rotation=90.000|XOffset=0mil|YOffset=0mil|HoleType=Round|Shape=RoundedRectangle|*
%AMROUNDEDRECTD35*
21,1,0.03162,0.05307,0,0,90.0*
21,1,0.01961,0.06509,0,0,90.0*
1,1,0.01202,0.02653,0.00980*
1,1,0.01202,0.02653,-0.00980*
1,1,0.01202,-0.02653,-0.00980*
1,1,0.01202,-0.02653,0.00980*
%
%ADD35ROUNDEDRECTD35*%
%ADD36R,0.04343X0.04934*%
%ADD37R,0.02965X0.02965*%
%ADD38R,0.03359X0.03359*%
%ADD39R,0.06509X0.05524*%
%ADD40R,0.11599X0.09300*%
%ADD41O,0.02572X0.06312*%
%ADD42R,0.07099X0.09383*%
%ADD43R,0.07099X0.09461*%
%ADD44R,0.06706X0.06706*%
%ADD45R,0.03556X0.04343*%
%ADD46C,0.12217*%
%ADD47C,0.07493*%
%ADD48R,0.07493X0.07493*%
%ADD49C,0.06706*%
%ADD50R,0.06706X0.06706*%
%ADD51R,0.06312X0.06312*%
%ADD52C,0.06312*%
%ADD53C,0.05800*%
D31*
X338500Y398795D02*
D03*
Y423205D02*
D03*
X387000Y360327D02*
D03*
Y384736D02*
D03*
D32*
X283000Y417311D02*
D03*
Y393689D02*
D03*
X266000Y405500D02*
D03*
Y381878D02*
D03*
D33*
X320595Y416858D02*
D03*
Y399142D02*
D03*
X370941Y358785D02*
D03*
Y341068D02*
D03*
D34*
X364685Y381000D02*
D03*
X375315D02*
D03*
D35*
X337929Y359709D02*
D03*
Y364709D02*
D03*
Y369709D02*
D03*
Y374709D02*
D03*
X316472Y359709D02*
D03*
Y364709D02*
D03*
Y369709D02*
D03*
Y374709D02*
D03*
D36*
X298236Y397709D02*
D03*
X303551D02*
D03*
X309343Y383000D02*
D03*
X314657D02*
D03*
D37*
X284075Y375665D02*
D03*
Y379209D02*
D03*
X300894Y362228D02*
D03*
Y365772D02*
D03*
D38*
X313862Y424500D02*
D03*
X309925D02*
D03*
D39*
X356394Y404846D02*
D03*
Y398153D02*
D03*
D40*
X351394Y289799D02*
D03*
Y307201D02*
D03*
X371394Y289799D02*
D03*
Y307201D02*
D03*
D41*
X336232Y337571D02*
D03*
X333673D02*
D03*
X331114D02*
D03*
X328555D02*
D03*
X336232Y321429D02*
D03*
X333673D02*
D03*
X331114D02*
D03*
X328555D02*
D03*
X314232Y337571D02*
D03*
X311673D02*
D03*
X309114D02*
D03*
X306555D02*
D03*
X314232Y321429D02*
D03*
X311673D02*
D03*
X309114D02*
D03*
X306555D02*
D03*
D42*
X243000Y412090D02*
D03*
X254500Y251299D02*
D03*
D43*
X243000Y375909D02*
D03*
X254500Y215118D02*
D03*
D44*
X258283Y339500D02*
D03*
X244504D02*
D03*
X258283Y356500D02*
D03*
X244504D02*
D03*
X344394Y246500D02*
D03*
Y216000D02*
D03*
X256394Y320500D02*
D03*
D45*
X283756Y339500D02*
D03*
X278244D02*
D03*
X283650Y359709D02*
D03*
X278138D02*
D03*
D46*
X327394Y454500D02*
D03*
X425779D02*
D03*
X198118Y454591D02*
D03*
X296504D02*
D03*
D47*
X360228Y460090D02*
D03*
X371134D02*
D03*
X382039D02*
D03*
X392945D02*
D03*
X354776Y448910D02*
D03*
X365681D02*
D03*
X376587D02*
D03*
X387492D02*
D03*
X230953Y460181D02*
D03*
X241858D02*
D03*
X252764D02*
D03*
X263669D02*
D03*
X225500Y449000D02*
D03*
X236405D02*
D03*
X247311D02*
D03*
X258217D02*
D03*
D48*
X398398Y448910D02*
D03*
X269122Y449000D02*
D03*
D49*
X304394Y246500D02*
D03*
X314394D02*
D03*
X324394D02*
D03*
X334394D02*
D03*
X304394Y216000D02*
D03*
X314394D02*
D03*
X324394D02*
D03*
X334394D02*
D03*
X246394Y320500D02*
D03*
X221894Y414500D02*
D03*
X211894Y404500D02*
D03*
X221894D02*
D03*
X211894Y394500D02*
D03*
X221894D02*
D03*
X211894Y384500D02*
D03*
X221894D02*
D03*
X211894Y374500D02*
D03*
X221894D02*
D03*
X211894Y364500D02*
D03*
X221894D02*
D03*
X211894Y354500D02*
D03*
X221894D02*
D03*
X211894Y344500D02*
D03*
X221894D02*
D03*
X211894Y334500D02*
D03*
X221894D02*
D03*
X211894Y324500D02*
D03*
X221894D02*
D03*
X211894Y314500D02*
D03*
X221894D02*
D03*
X211894Y304500D02*
D03*
X221894D02*
D03*
X211894Y294500D02*
D03*
X221894D02*
D03*
X211894Y284500D02*
D03*
X221894D02*
D03*
X211894Y274500D02*
D03*
X221894D02*
D03*
X211894Y264500D02*
D03*
X221894D02*
D03*
X211894Y254500D02*
D03*
X221894D02*
D03*
X211894Y244500D02*
D03*
X221894D02*
D03*
X211894Y234500D02*
D03*
X221894D02*
D03*
X211894Y224500D02*
D03*
X221894D02*
D03*
X211894Y214500D02*
D03*
X221894D02*
D03*
X211894Y204500D02*
D03*
X221894D02*
D03*
X211894Y194500D02*
D03*
X221894D02*
D03*
X211894Y184500D02*
D03*
X221894D02*
D03*
X412000Y414500D02*
D03*
X402000Y404500D02*
D03*
X412000D02*
D03*
X402000Y394500D02*
D03*
X412000D02*
D03*
X402000Y384500D02*
D03*
X412000D02*
D03*
X402000Y374500D02*
D03*
X412000D02*
D03*
X402000Y364500D02*
D03*
X412000D02*
D03*
X402000Y354500D02*
D03*
X412000D02*
D03*
X402000Y344500D02*
D03*
X412000D02*
D03*
X402000Y334500D02*
D03*
X412000D02*
D03*
X402000Y324500D02*
D03*
X412000D02*
D03*
X402000Y314500D02*
D03*
X412000D02*
D03*
X402000Y304500D02*
D03*
X412000D02*
D03*
X402000Y294500D02*
D03*
X412000D02*
D03*
X402000Y284500D02*
D03*
X412000D02*
D03*
X402000Y274500D02*
D03*
X412000D02*
D03*
X402000Y264500D02*
D03*
X412000D02*
D03*
X402000Y254500D02*
D03*
X412000D02*
D03*
X402000Y244500D02*
D03*
X412000D02*
D03*
X402000Y234500D02*
D03*
X412000D02*
D03*
X402000Y224500D02*
D03*
X412000D02*
D03*
X402000Y214500D02*
D03*
X412000D02*
D03*
X402000Y204500D02*
D03*
X412000D02*
D03*
X402000Y194500D02*
D03*
X412000D02*
D03*
X402000Y184500D02*
D03*
X412000D02*
D03*
D50*
X211894Y414500D02*
D03*
X402000D02*
D03*
D51*
X327394Y174500D02*
D03*
X281665D02*
D03*
D52*
X337394D02*
D03*
X291665D02*
D03*
D53*
X269122Y420500D02*
D03*
X260500Y426500D02*
D03*
X348500Y437500D02*
D03*
X353000Y381878D02*
D03*
X356394Y388653D02*
D03*
X359394Y368000D02*
D03*
X343500Y432500D02*
D03*
X349000Y394500D02*
D03*
X289094Y384000D02*
D03*
X324500Y387209D02*
D03*
X356500Y351209D02*
D03*
X308500Y359315D02*
D03*
X335489Y388000D02*
D03*
X335500Y301709D02*
D03*
X274658Y280851D02*
D03*
X278000Y275709D02*
D03*
X240500Y250047D02*
D03*
X274658Y332000D02*
D03*
X278500Y268209D02*
D03*
X372000Y210500D02*
D03*
X386000Y199000D02*
D03*
X378000Y204500D02*
D03*
X254000Y273000D02*
D03*
X243500Y259500D02*
D03*
X320595Y321282D02*
D03*
X388000Y307500D02*
D03*
X333673Y311000D02*
D03*
X318394Y313000D02*
D03*
X322000Y327500D02*
D03*
X306703Y350000D02*
D03*
X235394Y347500D02*
D03*
X261394Y310000D02*
D03*
X257894Y278500D02*
D03*
X261394Y300000D02*
D03*
Y289000D02*
D03*
X350894Y345000D02*
D03*
X231894Y365772D02*
D03*
M02*
