G04*
G04 #@! TF.GenerationSoftware,Altium Limited,Altium Designer,19.0.15 (446)*
G04*
G04 Layer_Physical_Order=2*
G04 Layer_Color=16711680*
%FSLAX25Y25*%
%MOIN*%
G70*
G01*
G75*
%ADD14C,0.01000*%
%ADD29R,0.05906X0.05906*%
%ADD54C,0.11417*%
%ADD55C,0.06693*%
%ADD56R,0.06693X0.06693*%
%ADD57C,0.05906*%
%ADD58R,0.05906X0.05906*%
%ADD59R,0.05512X0.05512*%
%ADD60C,0.05512*%
%ADD61C,0.05000*%
%ADD62R,0.03543X0.02756*%
D14*
X263669Y460181D02*
X268488Y465000D01*
X267394Y418772D02*
X269122Y420500D01*
X267394Y259284D02*
Y418772D01*
X275000Y174500D02*
X281665D01*
X267122Y182378D02*
X275000Y174500D01*
X267122Y182378D02*
Y259012D01*
X272500Y180500D02*
X295000D01*
X269122Y183878D02*
X272500Y180500D01*
X269122Y183878D02*
Y420500D01*
X295000Y180500D02*
X301000Y174500D01*
X327394D01*
X258823Y455335D02*
X263669Y460181D01*
X269122Y420500D02*
Y449000D01*
X256551Y320500D02*
X265394Y311657D01*
X240500Y250047D02*
X265394Y274941D01*
X267122Y259012D02*
X267394Y259284D01*
X265394Y274941D02*
Y311657D01*
X246150Y170244D02*
X287409D01*
X291665Y174500D01*
X221894Y194500D02*
X246150Y170244D01*
X256394Y320500D02*
X256551D01*
X246705Y455335D02*
X258823D01*
X361319Y459000D02*
X361569Y458750D01*
X365075Y455244D01*
X378828Y206672D02*
Y210500D01*
X366828Y222500D02*
X378828Y210500D01*
X367657Y224500D02*
X386000Y206157D01*
X369209Y226500D02*
X399606Y196102D01*
X371209Y228500D02*
X390756Y208953D01*
X389000Y214500D02*
X399894D01*
X373000Y230500D02*
X389000Y214500D01*
X386661Y220047D02*
X407547D01*
X374209Y232500D02*
X386661Y220047D01*
X385500Y224209D02*
X399602D01*
X375209Y234500D02*
X385500Y224209D01*
X390756Y208953D02*
X403844D01*
X399602Y224209D02*
X401894Y226500D01*
X401496Y196102D02*
X401894Y196500D01*
X378000Y205843D02*
X378828Y206672D01*
X317894Y228500D02*
X371209D01*
X321394Y230500D02*
X373000D01*
X378000Y204500D02*
Y205843D01*
X329787Y232500D02*
X374209D01*
X334394Y224500D02*
X367657D01*
X399606Y196102D02*
X401496D01*
X386000Y199000D02*
Y206157D01*
X342867Y222500D02*
X366828D01*
X337894Y234500D02*
X375209D01*
X326394Y226500D02*
X369209D01*
X381244Y459244D02*
Y460885D01*
X358012Y459000D02*
X361319D01*
X355319Y465000D02*
X360228Y460090D01*
X268488Y465000D02*
X355319D01*
X241858Y460181D02*
X246705Y455335D01*
X273894Y282513D02*
Y311387D01*
X274658Y280851D02*
Y281749D01*
X273894Y282513D02*
X274658Y281749D01*
X273894Y311387D02*
X290006Y327500D01*
X276000Y286894D02*
Y310665D01*
Y286894D02*
X280500Y282394D01*
X276000Y310665D02*
X281835Y316500D01*
X248000Y426500D02*
X260500D01*
X225500Y449000D02*
X248000Y426500D01*
X295921Y170244D02*
X333138D01*
X291665Y174500D02*
X295921Y170244D01*
X357471Y366078D02*
X359394Y368000D01*
X357471Y353262D02*
Y366078D01*
X356500Y352291D02*
X357471Y353262D01*
X355394Y355759D02*
Y368015D01*
X350894Y351259D02*
X355394Y355759D01*
X335489Y387920D02*
Y388000D01*
Y387920D02*
X355394Y368015D01*
X365075Y455244D02*
X377244D01*
X381244Y459244D01*
X361319Y459000D02*
X361819D01*
X360228Y460090D02*
X361319Y459000D01*
X348500Y449488D02*
X358012Y459000D01*
X348500Y437500D02*
Y449488D01*
X343500Y432500D02*
X367031D01*
X381433Y446902D01*
Y449704D02*
X385485Y453756D01*
X381433Y446902D02*
Y449704D01*
X396590Y448910D02*
X398398D01*
X391744Y453756D02*
X396590Y448910D01*
X385485Y453756D02*
X391744D01*
X353000Y381878D02*
X353765Y382643D01*
X356040D01*
X387492Y414095D01*
Y448910D01*
X358628Y368765D02*
X359394Y368000D01*
X361819Y459000D02*
X362910Y460090D01*
X360228D02*
X362910D01*
X289000Y384209D02*
X321500D01*
X381244Y460885D02*
X382039Y460090D01*
X347500Y378737D02*
Y395729D01*
X338709Y301709D02*
X344500Y307500D01*
X335500Y301709D02*
X338709D01*
X344500Y307500D02*
X388000D01*
X246394Y320500D02*
Y331500D01*
Y320500D02*
X256894Y310000D01*
X324500Y387209D02*
X325000Y387709D01*
X321500Y384209D02*
X324500Y387209D01*
X356500Y351209D02*
Y352291D01*
X347500Y378737D02*
X357471Y368765D01*
X358628D01*
X347394Y395836D02*
X347500Y395729D01*
X350894Y345000D02*
Y351259D01*
X308500Y358233D02*
Y359315D01*
X306703Y356435D02*
X308500Y358233D01*
X306703Y350000D02*
Y356435D01*
X284000Y276052D02*
Y283828D01*
X278500Y270552D02*
X284000Y276052D01*
X278500Y268209D02*
Y270552D01*
X278000Y275709D02*
Y276606D01*
X280500Y279106D01*
X406453Y200047D02*
X410250Y196250D01*
X412000Y194500D01*
X274658Y332000D02*
X323157D01*
X278500Y289328D02*
X284000Y283828D01*
X278500Y289328D02*
Y310337D01*
X282663Y314500D01*
X280500Y279106D02*
Y282394D01*
X372000Y210500D02*
Y214500D01*
X366000Y220500D02*
X372000Y214500D01*
X354453Y220500D02*
X366000D01*
X403844Y208953D02*
X406453Y206344D01*
X383722Y230000D02*
X405394D01*
X377222Y236500D02*
X383722Y230000D01*
X399894Y214500D02*
X401894Y216500D01*
X334394Y246500D02*
Y255744D01*
X223738Y288953D02*
X231482Y281209D01*
X253602D01*
X221144Y288953D02*
X223738D01*
X216964Y293132D02*
X221144Y288953D01*
X253602Y281209D02*
X261394Y289000D01*
X282663Y314500D02*
X313000D01*
X290006Y327500D02*
X322000D01*
X281835Y316500D02*
X314894D01*
X406453Y200047D02*
Y206344D01*
X344394Y199744D02*
X344787D01*
X344153D02*
X344394D01*
X344787D02*
X350500Y205457D01*
Y216547D01*
X354453Y220500D01*
X407547Y220047D02*
X412000Y224500D01*
X405394Y230000D02*
X410447Y235053D01*
X410500Y196500D02*
X411894D01*
X398394Y233000D02*
X400447Y235053D01*
X383551Y233000D02*
X398394D01*
X378050Y238500D02*
X383551Y233000D01*
X323157Y332000D02*
X328282Y326874D01*
X233000Y291000D02*
X252394D01*
X226346Y297654D02*
X233000Y291000D01*
X226346Y297654D02*
Y310047D01*
X221894Y314500D02*
X226346Y310047D01*
X257441Y278953D02*
X257894Y278500D01*
X217441Y278953D02*
X257441D01*
X211894Y284500D02*
X217441Y278953D01*
X223738Y250047D02*
X233191Y259500D01*
X217441Y250047D02*
X223738D01*
X211894Y244500D02*
X217441Y250047D01*
X252394Y291000D02*
X261394Y300000D01*
X233191Y259500D02*
X243500D01*
X216964Y293132D02*
Y299429D01*
X211894Y304500D02*
X216964Y299429D01*
X216347Y268953D02*
X223738D01*
X211894Y264500D02*
X216347Y268953D01*
X223738D02*
X225191Y267500D01*
X248500D02*
X254000Y273000D01*
X225191Y267500D02*
X248500D01*
X313000Y314500D02*
X314394Y313106D01*
Y311343D02*
Y313106D01*
Y311343D02*
X316737Y309000D01*
X320051D01*
X322394Y311343D01*
Y314872D01*
X320595Y316671D02*
X322394Y314872D01*
X320595Y316671D02*
Y321282D01*
X211894Y254500D02*
X212644Y255250D01*
X328282Y316391D02*
Y326874D01*
Y316391D02*
X333673Y311000D01*
X314894Y316500D02*
X318394Y313000D01*
X346367Y236500D02*
X377222D01*
X339394Y243473D02*
X346367Y236500D01*
X353500Y238500D02*
X378050D01*
X350894Y241106D02*
X353500Y238500D01*
X350894Y241106D02*
Y255150D01*
X329394Y243000D02*
X337894Y234500D01*
X319394Y242894D02*
X329787Y232500D01*
X309394Y242500D02*
X321394Y230500D01*
X339894Y219527D02*
X342867Y222500D01*
X329394Y219500D02*
X334394Y224500D01*
X319394Y219500D02*
X326394Y226500D01*
X309394Y220000D02*
X317894Y228500D01*
X235394Y342500D02*
Y347500D01*
Y342500D02*
X246394Y331500D01*
X256894Y310000D02*
X261394D01*
X231894Y365772D02*
Y374500D01*
X221894Y384500D02*
X231894Y374500D01*
X339894Y204850D02*
Y219527D01*
X334787Y199744D02*
X339894Y204850D01*
X329394Y204350D02*
Y219500D01*
Y243000D02*
Y256650D01*
X324787Y199744D02*
X329394Y204350D01*
X309394D02*
Y220000D01*
X304787Y199744D02*
X309394Y204350D01*
X304394Y199744D02*
X304787D01*
X319394Y204350D02*
Y219500D01*
X314787Y199744D02*
X319394Y204350D01*
X314394Y199744D02*
X314787D01*
X324394D02*
X324787D01*
X334394D02*
X334787D01*
X339394Y243473D02*
Y256650D01*
X319394Y242894D02*
Y256650D01*
X344787Y261256D02*
X350894Y255150D01*
X344394Y205256D02*
X344394Y205256D01*
X344394Y205256D02*
Y216000D01*
X334394Y205256D02*
X334394Y205256D01*
X334394Y205256D02*
Y216000D01*
X324394Y205256D02*
X324394Y205256D01*
X324394Y205256D02*
Y216000D01*
X314394Y205256D02*
X314394Y205256D01*
X314394Y205256D02*
Y216000D01*
X309394Y242500D02*
Y256650D01*
X304394Y205256D02*
X304394Y205256D01*
X304394Y205256D02*
Y216000D01*
X344394Y261256D02*
X344787D01*
X334787D02*
X339394Y256650D01*
X324787Y261256D02*
X329394Y256650D01*
X334394Y261256D02*
X334787D01*
X324394D02*
X324787D01*
X314787D02*
X319394Y256650D01*
X314394Y261256D02*
X314787D01*
X304787D02*
X309394Y256650D01*
X304394Y261256D02*
X304787D01*
X344394Y255744D02*
X344394Y255744D01*
Y246500D02*
Y255744D01*
X334394Y255744D02*
X334394Y255744D01*
X324394Y255744D02*
X324394Y255744D01*
Y246500D02*
Y255744D01*
X314394Y255744D02*
X314394Y255744D01*
Y246500D02*
Y255744D01*
X304394Y255744D02*
X304394Y255744D01*
Y246500D02*
Y255744D01*
X333138Y170244D02*
X337394Y174500D01*
D29*
X344394Y246500D02*
D03*
Y216000D02*
D03*
X256394Y320500D02*
D03*
D54*
X327394Y454500D02*
D03*
X425779D02*
D03*
X198118Y454591D02*
D03*
X296504D02*
D03*
D55*
X360228Y460090D02*
D03*
X371134D02*
D03*
X382039D02*
D03*
X392945D02*
D03*
X354776Y448910D02*
D03*
X365681D02*
D03*
X376587D02*
D03*
X387492D02*
D03*
X230953Y460181D02*
D03*
X241858D02*
D03*
X252764D02*
D03*
X263669D02*
D03*
X225500Y449000D02*
D03*
X236405D02*
D03*
X247311D02*
D03*
X258217D02*
D03*
D56*
X398398Y448910D02*
D03*
X269122Y449000D02*
D03*
D57*
X304394Y246500D02*
D03*
X314394D02*
D03*
X324394D02*
D03*
X334394D02*
D03*
X304394Y216000D02*
D03*
X314394D02*
D03*
X324394D02*
D03*
X334394D02*
D03*
X246394Y320500D02*
D03*
X221894Y414500D02*
D03*
X211894Y404500D02*
D03*
X221894D02*
D03*
X211894Y394500D02*
D03*
X221894D02*
D03*
X211894Y384500D02*
D03*
X221894D02*
D03*
X211894Y374500D02*
D03*
X221894D02*
D03*
X211894Y364500D02*
D03*
X221894D02*
D03*
X211894Y354500D02*
D03*
X221894D02*
D03*
X211894Y344500D02*
D03*
X221894D02*
D03*
X211894Y334500D02*
D03*
X221894D02*
D03*
X211894Y324500D02*
D03*
X221894D02*
D03*
X211894Y314500D02*
D03*
X221894D02*
D03*
X211894Y304500D02*
D03*
X221894D02*
D03*
X211894Y294500D02*
D03*
X221894D02*
D03*
X211894Y284500D02*
D03*
X221894D02*
D03*
X211894Y274500D02*
D03*
X221894D02*
D03*
X211894Y264500D02*
D03*
X221894D02*
D03*
X211894Y254500D02*
D03*
X221894D02*
D03*
X211894Y244500D02*
D03*
X221894D02*
D03*
X211894Y234500D02*
D03*
X221894D02*
D03*
X211894Y224500D02*
D03*
X221894D02*
D03*
X211894Y214500D02*
D03*
X221894D02*
D03*
X211894Y204500D02*
D03*
X221894D02*
D03*
X211894Y194500D02*
D03*
X221894D02*
D03*
X211894Y184500D02*
D03*
X221894D02*
D03*
X412000Y414500D02*
D03*
X402000Y404500D02*
D03*
X412000D02*
D03*
X402000Y394500D02*
D03*
X412000D02*
D03*
X402000Y384500D02*
D03*
X412000D02*
D03*
X402000Y374500D02*
D03*
X412000D02*
D03*
X402000Y364500D02*
D03*
X412000D02*
D03*
X402000Y354500D02*
D03*
X412000D02*
D03*
X402000Y344500D02*
D03*
X412000D02*
D03*
X402000Y334500D02*
D03*
X412000D02*
D03*
X402000Y324500D02*
D03*
X412000D02*
D03*
X402000Y314500D02*
D03*
X412000D02*
D03*
X402000Y304500D02*
D03*
X412000D02*
D03*
X402000Y294500D02*
D03*
X412000D02*
D03*
X402000Y284500D02*
D03*
X412000D02*
D03*
X402000Y274500D02*
D03*
X412000D02*
D03*
X402000Y264500D02*
D03*
X412000D02*
D03*
X402000Y254500D02*
D03*
X412000D02*
D03*
X402000Y244500D02*
D03*
X412000D02*
D03*
X402000Y234500D02*
D03*
X412000D02*
D03*
X402000Y224500D02*
D03*
X412000D02*
D03*
X402000Y214500D02*
D03*
X412000D02*
D03*
X402000Y204500D02*
D03*
X412000D02*
D03*
X402000Y194500D02*
D03*
X412000D02*
D03*
X402000Y184500D02*
D03*
X412000D02*
D03*
D58*
X211894Y414500D02*
D03*
X402000D02*
D03*
D59*
X327394Y174500D02*
D03*
X281665D02*
D03*
D60*
X337394D02*
D03*
X291665D02*
D03*
D61*
X269122Y420500D02*
D03*
X260500Y426500D02*
D03*
X348500Y437500D02*
D03*
X353000Y381878D02*
D03*
X356394Y388653D02*
D03*
X359394Y368000D02*
D03*
X343500Y432500D02*
D03*
X349000Y394500D02*
D03*
X289094Y384000D02*
D03*
X324500Y387209D02*
D03*
X356500Y351209D02*
D03*
X308500Y359315D02*
D03*
X335489Y388000D02*
D03*
X335500Y301709D02*
D03*
X274658Y280851D02*
D03*
X278000Y275709D02*
D03*
X240500Y250047D02*
D03*
X274658Y332000D02*
D03*
X278500Y268209D02*
D03*
X372000Y210500D02*
D03*
X386000Y199000D02*
D03*
X378000Y204500D02*
D03*
X254000Y273000D02*
D03*
X243500Y259500D02*
D03*
X320595Y321282D02*
D03*
X388000Y307500D02*
D03*
X333673Y311000D02*
D03*
X318394Y313000D02*
D03*
X322000Y327500D02*
D03*
X306703Y350000D02*
D03*
X235394Y347500D02*
D03*
X261394Y310000D02*
D03*
X257894Y278500D02*
D03*
X261394Y300000D02*
D03*
Y289000D02*
D03*
X350894Y345000D02*
D03*
X231894Y365772D02*
D03*
D62*
X324394Y205256D02*
D03*
Y199744D02*
D03*
Y261256D02*
D03*
Y255744D02*
D03*
X334394Y261256D02*
D03*
Y255744D02*
D03*
X304394Y261256D02*
D03*
Y255744D02*
D03*
X314394Y261256D02*
D03*
Y255744D02*
D03*
X304394Y199744D02*
D03*
Y205256D02*
D03*
X344394Y199744D02*
D03*
Y205256D02*
D03*
X334394Y199744D02*
D03*
Y205256D02*
D03*
X314394Y199744D02*
D03*
Y205256D02*
D03*
X344394Y261256D02*
D03*
Y255744D02*
D03*
M02*
