M48
;Layer_Color=9474304
;FILE_FORMAT=2:5
INCH,LZ
;TYPE=PLATED
T1F00S00C0.02800
T2F00S00C0.03504
T3F00S00C0.03543
T4F00S00C0.04700
;TYPE=NON_PLATED
T5F00S00C0.12598
T6F00S00C0.12600
%
T01
X0372Y02105
X0378Y02045
X0386Y0199
X0388Y03075
X0333673Y0311
X03355Y0301709
X0261394Y03
Y031
Y0289
X0257894Y02785
X0254Y0273
X02435Y02595
X02405Y0250047
X02785Y0268209
X0278Y0275709
X0274658Y0280851
Y0332
X0306703Y035
X03085Y0359315
X0289Y0384209
X0283Y04185
X0274657Y0412066
X0265894Y04195
X0231894Y0365772
X0235394Y03475
X0322Y03275
X0320595Y0321282
X0318394Y0313
X0350894Y0345
X03565Y0351209
X0359394Y0368
X0353394Y03785
X0356394Y0388653
X0347394Y0395836
X0337394Y03895
X03245Y0387209
X0345083Y04185
T02
X0327394Y01745
X0337394
X0291665
X0281665
T03
X0314394Y0216
X0324394
X0334394
X0344394
Y02465
X0334394
X0324394
X0314394
X0402Y02445
Y02545
Y02645
Y02745
Y02845
Y02945
Y03045
X0412
Y02945
Y02845
Y02745
Y02645
Y02545
Y02445
Y02345
X0402
Y02245
X0412
Y02145
X0402
Y02045
X0412
Y01945
X0402
Y01845
X0412
X0304394Y0216
Y02465
X0221894Y02445
Y02545
Y02645
Y02745
Y02845
Y02945
Y03045
X0211894
Y02945
Y02845
Y02745
Y02645
Y02545
Y02445
Y02345
X0221894
Y02245
X0211894
Y02145
X0221894
Y02045
X0211894
Y01945
X0221894
Y01845
X0211894
Y03145
Y03245
Y03345
Y03445
Y03545
Y03645
Y03745
Y03845
Y03945
Y04045
Y04145
X0221894
Y04045
Y03945
Y03845
Y03745
Y03645
Y03545
Y03445
Y03345
Y03245
Y03145
X0246394Y03205
X0256394
X0402Y03245
Y03345
Y03445
Y03545
Y03645
Y03745
Y03845
Y03945
Y04045
Y04145
X0412
Y04045
Y03945
Y03845
Y03745
Y03645
Y03545
Y03445
Y03345
Y03245
Y03145
X0402
T04
X0225724Y0447319
X023663
X0247535
X0258441
X0269346
X0263894Y04585
X0252988
X0242083
X0231177
X0360035Y0458181
X0370941
X0381846
X0392752
X0398205Y0447
X0387299
X0376394
X0365488
X0354583
T05
X0198343Y045291
X0327201Y0452591
T06
X0296728Y045291
X0425587Y0452591
M30
